<svg width="21" height="26" viewBox="0 0 21 26" fill="none" xmlns="http://www.w3.org/2000/svg">
<path fill-rule="evenodd" clip-rule="evenodd" d="M9.64958 25.5846C8.83677 25.5846 8.03829 25.358 7.3344 24.9275C7.03299 24.7605 6.84228 24.4319 6.83767 24.0716C6.83307 23.7114 7.01531 23.3774 7.31235 23.2018C7.60939 23.0263 7.9734 23.0373 8.26047 23.2306C9.03369 23.6997 9.97247 23.7476 10.7846 23.3592C11.5968 22.9709 12.1838 22.1934 12.363 21.2689C12.5338 20.3329 13.3152 19.6625 14.2151 19.6799H16.8359L16.1969 16.9727C16.188 16.8945 16.188 16.8155 16.1969 16.7373V11.117C16.259 7.42983 13.618 4.31985 10.1497 3.99596C8.35631 3.86813 6.59334 4.53468 5.28179 5.83642C3.97024 7.13816 3.22785 8.95822 3.23191 10.862V16.7471C3.24083 16.8253 3.24083 16.9043 3.23191 16.9825L2.59292 19.6897H9.74219C10.2536 19.6897 10.6683 20.1288 10.6683 20.6705C10.6683 21.2123 10.2536 21.6514 9.74219 21.6514H2.59292C2.02368 21.6509 1.48626 21.3733 1.13553 20.8984C0.784798 20.4235 0.65972 19.8042 0.796337 19.2189L1.40754 16.6294V10.8718C1.4024 8.42489 2.35637 6.08551 4.04176 4.41198C5.72715 2.73845 7.99275 1.88092 10.2978 2.04405C14.7381 2.43519 18.1359 6.39818 18.0768 11.117V16.6098L18.688 19.1993C18.8247 19.7845 18.6996 20.4039 18.3488 20.8788C17.9981 21.3536 17.4607 21.6313 16.8915 21.6318H14.2707C13.8363 23.9601 11.8901 25.6249 9.64958 25.5846V25.5846Z" fill="#0F1E36" fill-opacity="0.5"/>
<ellipse cx="16.5" cy="4.58536" rx="3.5" ry="3.58536" fill="#F51E38" stroke="#F5F5F5"/>
</svg>
