<svg width="15" height="13" viewBox="0 0 15 13" fill="none" xmlns="http://www.w3.org/2000/svg">
<path opacity="0.5" fill-rule="evenodd" clip-rule="evenodd" d="M12.0969 12.9938H7.36905C6.87359 12.9933 6.39859 12.7973 6.04847 12.4488L5.17017 11.5755C4.9924 11.4241 4.91497 11.1865 4.96971 10.9602C5.02445 10.734 5.20211 10.5573 5.42966 10.5029C5.65721 10.4485 5.89624 10.5255 6.04847 10.7022L6.92678 11.5755C7.04433 11.6914 7.20347 11.7561 7.36905 11.7551H12.0969C12.392 11.7629 12.6521 11.5638 12.7199 11.2782L13.7601 6.94282C13.8047 6.75571 13.7593 6.55864 13.6373 6.40945C13.5153 6.26025 13.3305 6.17586 13.1372 6.18103H8.48406C8.05295 6.1808 7.6526 5.95898 7.4256 5.59458C7.19859 5.23018 7.1772 4.77499 7.36905 4.39113L8.44668 2.2544C8.55588 2.03745 8.5454 1.77996 8.41893 1.57249C8.29247 1.36502 8.06773 1.23664 7.82377 1.23249L5.13279 5.24582C4.62307 6.00495 4.30863 6.87691 4.21711 7.78512L3.86205 11.3278C3.76573 12.2807 2.95661 13.0048 1.99332 13H1.86874C0.836661 13 0 12.1681 0 11.142V6.18722C0 5.16106 0.836661 4.3292 1.86874 4.3292C2.21276 4.3292 2.49165 4.60649 2.49165 4.94854C2.49165 5.29059 2.21276 5.56788 1.86874 5.56788C1.52471 5.56788 1.24582 5.84517 1.24582 6.18722V11.142C1.24582 11.484 1.52471 11.7613 1.86874 11.7613H1.98709C2.30819 11.7629 2.57789 11.5215 2.61 11.2039L2.96506 7.66125C3.07801 6.55424 3.46074 5.49131 4.08007 4.56455L6.77105 0.551216C7.00169 0.207505 7.38952 0.000766915 7.80508 1.90148e-06C8.48417 -0.000940396 9.11515 0.348397 9.47198 0.922866C9.8288 1.49734 9.86041 2.21471 9.55547 2.818L8.47783 4.95473H13.131C13.7022 4.95465 14.2422 5.21437 14.5967 5.65978C14.9512 6.10518 15.0813 6.68734 14.9499 7.2401L13.9096 11.5755C13.7059 12.4069 12.9576 12.9924 12.0969 12.9938Z" fill="#0F1E36"/>
</svg>
