<svg width="12" height="12" viewBox="0 0 12 12" fill="none" xmlns="http://www.w3.org/2000/svg">
<path opacity="0.5" fill-rule="evenodd" clip-rule="evenodd" d="M5.00136 6.47996H3.50383C3.22814 6.47996 3.00465 6.25648 3.00465 5.98079C3.00465 5.7051 3.22814 5.48161 3.50383 5.48161H5.00136C5.27705 5.48161 5.50053 5.7051 5.50053 5.98079C5.50053 6.25648 5.27705 6.47996 5.00136 6.47996ZM9.3493 10.9726C9.49732 10.8727 9.58082 10.7014 9.56834 10.5233C9.55586 10.3452 9.4493 10.1873 9.2888 10.109C9.1283 10.0307 8.93824 10.0441 8.79022 10.1439C6.64793 11.6057 3.74706 11.2097 2.0749 9.22729C0.40274 7.24486 0.501467 4.31876 2.30345 2.45355C4.10543 0.588342 7.02639 0.388803 9.06528 1.99163C11.1042 3.59446 11.5999 6.47995 10.2129 8.67136C10.1175 8.82206 10.1097 9.01221 10.1925 9.17018C10.2753 9.32816 10.4361 9.42996 10.6143 9.43724C10.7925 9.44452 10.9611 9.35618 11.0565 9.20548C12.6938 6.60992 12.1047 3.19679 9.69201 1.30027C7.27936 -0.596245 3.82364 -0.36265 1.68817 1.8413C-0.447297 4.04526 -0.571727 7.50663 1.39998 9.85822C3.37169 12.2098 6.80171 12.691 9.34431 10.9726H9.3493ZM8.99488 5.98079C8.99488 5.7051 8.77139 5.48161 8.49571 5.48161H6.99818C6.72249 5.48161 6.499 5.7051 6.499 5.98079C6.499 6.25648 6.72249 6.47996 6.99818 6.47996H8.49571C8.77139 6.47996 8.99488 6.25648 8.99488 5.98079ZM6.49897 8.47668V6.97915C6.49897 6.70346 6.27548 6.47997 5.99979 6.47997C5.7241 6.47997 5.50061 6.70346 5.50061 6.97915V8.47668C5.50061 8.75237 5.7241 8.97586 5.99979 8.97586C6.27548 8.97586 6.49897 8.75237 6.49897 8.47668ZM6.49897 4.98245V3.48492C6.49897 3.20923 6.27548 2.98574 5.99979 2.98574C5.7241 2.98574 5.50061 3.20923 5.50061 3.48492V4.98245C5.50061 5.25813 5.7241 5.48162 5.99979 5.48162C6.27548 5.48162 6.49897 5.25813 6.49897 4.98245Z" fill="#3F4B5E"/>
</svg>
