<svg width="14" height="10" viewBox="0 0 14 10" fill="none" xmlns="http://www.w3.org/2000/svg">
<path fill-rule="evenodd" clip-rule="evenodd" d="M5.9099 10C4.95246 10 4.17631 9.21084 4.17631 8.23737V4.12456C4.17631 3.80007 3.91759 3.53701 3.59844 3.53701C3.44549 3.52329 3.29406 3.57675 3.18238 3.6839C3.08243 3.78258 3.02613 3.91827 3.02636 4.05993C3.02825 4.57959 2.81918 5.07701 2.44849 5.43478C2.07478 5.79037 1.57214 5.97137 1.06162 5.9342L0.541543 5.89894C0.222398 5.87785 -0.019504 5.5977 0.0012405 5.27321C0.021985 4.94872 0.29752 4.70276 0.616666 4.72385L1.13674 4.75911C1.32822 4.77231 1.51652 4.70424 1.65682 4.57109C1.79807 4.43767 1.87774 4.25008 1.87641 4.05405C1.8752 3.59329 2.05884 3.15194 2.38493 2.83196C2.71245 2.51706 3.14772 2.34425 3.59844 2.35018C4.55588 2.35018 5.33204 3.13933 5.33204 4.11281V8.22562C5.33204 8.55011 5.59076 8.81316 5.9099 8.81316C6.22905 8.81316 6.48777 8.55011 6.48777 8.22562V1.76263C6.48777 0.789157 7.26392 0 8.22136 0C9.1788 0 9.95495 0.789157 9.95495 1.76263V6.46298C9.95495 6.78748 10.2137 7.05053 10.5328 7.05053C10.852 7.05053 11.1107 6.78748 11.1107 6.46298C11.1107 5.48951 11.8868 4.70035 12.8443 4.70035H13.4221C13.7413 4.70035 14 4.9634 14 5.2879C14 5.61239 13.7413 5.87544 13.4221 5.87544H12.8443C12.5251 5.87544 12.2664 6.13849 12.2664 6.46298C12.2664 7.43646 11.4903 8.22562 10.5328 8.22562C9.57538 8.22562 8.79922 7.43646 8.79922 6.46298V1.76263C8.79922 1.43814 8.5405 1.17509 8.22136 1.17509C7.90221 1.17509 7.64349 1.43814 7.64349 1.76263V8.22562C7.64657 8.69513 7.46529 9.14649 7.13984 9.47959C6.81439 9.81269 6.37169 10 5.9099 10Z" fill="#3E2AD1"/>
</svg>
